<svg width="86" height="85" viewBox="0 0 86 85" fill="none" xmlns="http://www.w3.org/2000/svg">
<path d="M10.2193 1.00315C14.5367 3.18545 15.105 5.91332 11.9241 9.18677C9.82817 10.1019 7.77279 10.4363 5.758 10.1899C4.63621 10.0139 3.57346 9.35572 2.56976 8.2153C2.04577 7.56765 1.83543 6.64897 1.93875 5.45927C2.22658 3.15729 3.50335 1.74936 5.76907 1.23546C7.03108 0.946836 8.5145 0.869399 10.2193 1.00315ZM13.2969 12.1434C12.5957 19.4788 11.902 26.3037 11.2156 32.6183C9.16395 33.0829 7.34105 33.3152 5.74693 33.3152C4.16019 33.3223 3.32623 33.3152 3.24505 33.2941C2.72105 28.7535 2.4074 21.8195 2.30407 12.4919C4.40743 11.8794 8.07169 11.7633 13.2969 12.1434Z" fill="black"/>
<path d="M25.928 0L24.7214 24.1813C28.0056 23.5899 31.1827 23.2485 34.2529 23.157C34.4522 26.2685 34.3082 29.0633 33.8212 31.5412C29.1864 32.3719 23.0904 32.9949 15.5331 33.4103L15.7545 22.6713C16.1013 12.7946 16.2194 5.75845 16.1087 1.56281C19.6217 0.703967 22.8948 0.183031 25.928 0Z" fill="black"/>
<path d="M47.2826 0.179512C46.6258 4.60747 46.2309 9.60563 46.0981 15.174C47.4265 14.8572 48.1239 14.6988 48.1904 14.6988C48.6848 14.6425 49.4007 14.4947 50.338 14.2553C50.4635 11.6999 50.6959 7.71196 51.0354 2.29141C53.5226 1.73528 56.5337 1.3129 60.0688 1.02427C58.7846 15.1318 57.8916 25.3217 57.3898 31.594C54.4229 32.7345 51.7587 33.5159 49.397 33.9383C49.4339 31.5096 49.6111 27.2646 49.9284 21.2035L45.766 21.9955C45.7217 22.9458 45.4302 26.258 44.8914 31.932C43.1423 32.291 41.622 32.5937 40.3305 32.8401C38.5445 33.1146 37.1718 33.3258 36.2123 33.4736C37.1939 20.8093 37.6921 10.028 37.7068 1.12987C40.5113 0.693408 43.7032 0.376622 47.2826 0.179512Z" fill="black"/>
<path d="M78.1244 1.11931L78.6115 3.76974L84.1023 31.3934C82.6927 32.1255 80.106 32.5338 76.3421 32.6183C75.5598 29.1759 75.128 27.2963 75.0469 26.9795L74.7258 25.4907C73.8919 25.3147 72.3752 25.3147 70.1759 25.4907C69.2977 28.6726 68.6593 31.0098 68.2608 32.5022C65.5227 33.1498 62.5965 32.8436 59.4821 31.5835C61.6813 24.4312 62.9766 20.3059 63.3677 19.2077C63.7663 18.1025 64.6334 15.1987 65.9692 10.4962L68.2165 2.86163C70.6224 1.45369 73.9251 0.872919 78.1244 1.11931ZM72.6668 13.2099C72.069 16.1596 71.556 18.4721 71.128 20.1475C72.0505 20.1123 73.0837 20.0947 74.2277 20.0947C73.7479 17.3915 73.2276 15.0966 72.6668 13.2099Z" fill="black"/>
<path d="M16.7678 38.7102C15.9017 41.1362 15.506 43.078 15.5807 44.5356C13.0572 44.1083 11.0837 44.2009 9.66014 44.8133C8.14206 45.5492 7.05451 46.6507 6.3975 48.1177C5.26267 51.9111 5.65837 54.0666 7.5846 54.5841C9.20721 54.7787 10.3794 53.9265 11.1011 52.0274C10.7178 51.9515 9.52824 52.0084 7.53233 52.1983V48.3242C7.53233 48.1866 8.69952 48.0869 11.0339 48.0251C13.3732 47.9587 15.1228 47.8803 16.2825 47.7901C16.3173 53.6013 14.4882 57.4564 10.795 59.3555C6.3751 60.6469 3.05273 59.4742 0.827865 55.8374C-0.560812 52.571 -0.202443 48.6874 1.90297 44.1866C2.28125 43.4175 2.74165 42.7267 3.28418 42.1143C6.5294 38.7956 11.0239 37.6609 16.7678 38.7102Z" fill="black"/>
<path d="M30.4604 38.6674L30.7889 40.4549L34.4921 59.0849C33.5414 59.5786 31.7968 59.854 29.2584 59.911C28.7308 57.5893 28.4396 56.3217 28.3849 56.1081L28.1684 55.1039C27.6059 54.9852 26.5831 54.9852 25.0998 55.1039C24.5075 57.2499 24.077 58.8261 23.8082 59.8326C21.9616 60.2694 19.9881 60.0629 17.8877 59.2131C19.3709 54.3894 20.2444 51.6073 20.5082 50.8666C20.777 50.1212 21.3619 48.1628 22.2628 44.9914L23.7784 39.8425C25.401 38.893 27.6283 38.5013 30.4604 38.6674ZM26.7797 46.8216C26.3765 48.8109 26.0306 50.3705 25.7419 51.5004C26.3641 51.4767 27.0609 51.4648 27.8324 51.4648C27.5089 49.6417 27.158 48.094 26.7797 46.8216Z" fill="black"/>
<path d="M56.9946 38.8028C57.7611 49.5468 58.117 56.5306 58.0622 59.7543L52.4329 60.6302C52.4229 59.4576 52.2313 56.3027 51.858 51.1657C51.8082 49.7936 51.7584 48.9628 51.7087 48.6732C51.7485 48.6827 51.7684 48.6661 51.7684 48.6233L51.7087 48.6091C50.6087 51.1918 49.0234 54.6125 46.9528 58.8712L43.2347 47.9397C43.2447 47.6168 43.0033 48.8607 42.5105 51.6714C42.0178 54.482 41.6594 57.079 41.4354 59.4623C39.4545 59.5478 37.5133 59.3056 35.612 58.7359C35.8907 56.2434 36.3884 53.3829 37.1052 50.1545C37.7721 47.2346 38.4565 43.3392 39.1583 38.468C41.2587 38.3256 43.4662 38.195 45.7807 38.0764C46.2286 40.9202 46.8558 43.465 47.6621 45.7106C48.3938 43.992 49.3967 41.6775 50.6709 38.7671C52.4229 38.6532 54.5308 38.6651 56.9946 38.8028Z" fill="black"/>
<path d="M72.2028 38.3897C72.377 39.7523 72.275 41.5991 71.8967 43.9303C68.7511 43.9967 65.9513 44.2175 63.4975 44.5926C63.4377 45.3284 63.4153 45.929 63.4303 46.3943C66.2524 46.1902 67.7954 46.1237 68.0592 46.1949L67.992 50.418L63.7886 50.8381L63.7289 50.9022C63.7687 51.9752 63.7961 52.6826 63.811 53.0244L63.923 53.0601C64.6348 53.0411 65.5232 52.9437 66.5884 52.7681C67.6187 52.5877 69.3558 52.4262 71.7997 52.2838C72.168 54.0025 72.3148 56.0843 72.2402 58.5294C70.737 58.6196 66.1479 59.0801 58.4729 59.911C58.4928 59.4932 58.5027 58.2611 58.5027 56.2149C58.5027 54.1686 58.3833 50.8358 58.1444 46.2163C58.1294 45.8982 58.1095 45.1006 58.0846 43.8234C57.8756 41.141 57.7984 39.5695 57.8532 39.109C63.154 38.9143 67.9373 38.6746 72.2028 38.3897Z" fill="black"/>
<path d="M86 39.2016C85.9751 40.3268 85.6416 41.9884 84.9996 44.1866C83.7403 43.916 82.3516 43.7807 80.8335 43.7807C79.0715 43.8139 77.7774 44.1012 76.9512 44.6424C75.8861 45.3546 75.4057 46.0976 75.5103 46.8714C75.8338 47.6453 76.5306 47.7783 77.6007 47.2702C78.6758 46.9237 79.4274 46.7504 79.8555 46.7504C80.1989 46.6744 80.6743 46.6554 81.2815 46.6934C82.1276 46.7124 82.8668 46.8525 83.4989 47.1136C84.1011 47.332 84.6163 47.7332 85.0443 48.3171C85.3828 48.7302 85.6441 49.2928 85.8283 50.0049C86.1269 51.4909 86.0124 53.0363 85.4848 54.641C83.265 59.5501 78.4618 61.3566 71.0755 60.0605L70.8888 54.4487C71.6105 54.6339 72.5786 54.8357 73.7931 55.0541C77.9093 55.13 80.0048 54.3229 80.0795 52.6328C79.9849 51.555 79.2806 51.2441 77.9666 51.6998C76.7422 52.1604 75.9085 52.431 75.4655 52.5117C74.5447 52.5924 73.823 52.5663 73.3003 52.4334C72.7777 52.2957 72.1804 51.9538 71.5085 51.4079C71.3293 51.2797 71.1427 51.0447 70.9485 50.7028C70.625 50.266 70.401 49.6844 70.2766 48.9581C70.1124 44.6566 72.0062 41.592 75.9582 39.7642C78.9197 38.5345 82.267 38.347 86 39.2016Z" fill="black"/>
<path d="M15.8788 66.6681C15.8574 67.6381 15.5699 69.0706 15.0164 70.9655C13.9308 70.7322 12.7336 70.6156 11.425 70.6156C9.90601 70.6442 8.7904 70.8919 8.07812 71.3585C7.15989 71.9724 6.74583 72.6129 6.83594 73.28C7.11484 73.9472 7.71555 74.0618 8.63807 73.6238C9.56489 73.3251 10.2128 73.1757 10.5818 73.1757C10.8779 73.1102 11.2876 73.0938 11.8111 73.1266C12.5406 73.1429 13.1777 73.2637 13.7227 73.4888C14.2419 73.677 14.686 74.0229 15.055 74.5263C15.3467 74.8824 15.572 75.3674 15.7308 75.9813C15.9882 77.2624 15.8895 78.5946 15.4347 79.978C13.521 84.2099 9.38038 85.7673 3.01283 84.6499L2.85192 79.8122C3.47409 79.9718 4.30865 80.1458 5.35561 80.334C8.9041 80.3995 10.7105 79.7037 10.7749 78.2467C10.6934 77.3176 10.0862 77.0495 8.95345 77.4424C7.89791 77.8395 7.1792 78.0727 6.79732 78.1423C6.00352 78.2119 5.38135 78.1894 4.93082 78.0748C4.48028 77.9561 3.96539 77.6614 3.38613 77.1907C3.23166 77.0802 3.07075 76.8776 2.90341 76.583C2.62451 76.2064 2.43142 75.705 2.32415 75.0788C2.18256 71.3707 3.81521 68.7288 7.22211 67.1531C9.77514 66.093 12.6607 65.9314 15.8788 66.6681Z" fill="black"/>
<path d="M30.8559 66.3427C30.9159 67.9921 30.7958 69.5576 30.4954 71.0392C28.9336 71.0474 27.5026 71.1272 26.2025 71.2786C26.0437 74.3237 25.9901 78.7235 26.0416 84.478C24.4497 84.6949 22.8771 84.8218 21.3238 84.8587L21.6714 71.4444C20.3327 71.4935 18.8395 71.6368 17.1918 71.8741C17.0073 70.8223 16.9708 69.132 17.0824 66.8031C21.6521 66.7827 26.2432 66.6292 30.8559 66.3427Z" fill="black"/>
<path d="M37.5431 66.4348C37.38 67.1879 37.1204 68.8946 36.7643 71.5549C36.4125 74.2112 36.4167 76.0673 36.7772 77.1232C37.0346 77.7003 37.4058 77.9684 37.8906 77.9274C38.6415 77.8088 39.1607 77.3626 39.4482 76.5891C39.9159 74.4322 40.0382 71.3748 39.8151 67.4171C40.2356 67.0201 41.4971 66.4921 43.5996 65.8331C43.9986 65.7308 44.314 65.6796 44.5457 65.6796C45.288 69.4737 45.5583 72.6784 45.3566 75.2937C45.3223 76.9677 44.6937 78.8934 43.4708 81.0707C43.2005 81.521 42.8315 81.9978 42.3638 82.5012C41.6086 83.3157 40.8727 83.8907 40.1562 84.2263C38.959 84.8321 37.7683 85.0613 36.5841 84.9139C35.9576 84.8198 35.344 84.5619 34.7433 84.1404C34.1598 83.7638 33.5998 83.109 33.0635 82.1758C32.54 81.2999 32.1023 80.0926 31.7505 78.5536C31.4973 77.5836 31.3579 76.4786 31.3321 75.2385C31.2635 74.6245 31.3514 73.2923 31.596 71.2418C31.9393 69.2813 32.2868 67.9778 32.6387 67.3311C34.1448 66.9464 35.7796 66.6476 37.5431 66.4348Z" fill="black"/>
<path d="M58.6603 68.8536C59.3768 69.8564 59.8252 70.8489 60.0054 71.8312C60.1685 72.748 60.2414 73.3394 60.2243 73.6054C60.3015 76.9493 59.63 79.4398 58.2097 81.0769C56.7895 82.714 54.5304 83.7311 51.4324 84.1281C49.6389 84.5169 48.0813 84.5947 46.7597 84.3614L46.8305 80.9848C46.8348 78.9343 46.8219 76.896 46.7919 74.8701L46.4572 66.9812C47.5171 66.531 49.3342 66.224 51.9087 66.0603C54.4832 65.8966 56.7337 66.8277 58.6603 68.8536ZM51.2908 79.3518C54.2944 79.2208 55.8369 77.6921 55.9185 74.7657C55.9528 73.5215 55.5323 72.4819 54.657 71.647C53.3955 71.16 52.2348 71.1088 51.175 71.4935C51.3423 74.7023 51.3809 77.3217 51.2908 79.3518Z" fill="black"/>
<path d="M66.2164 66.1401C68.7265 67.4089 69.0569 68.9948 67.2076 70.898C65.989 71.4301 64.794 71.6245 63.6226 71.4812C62.9704 71.3789 62.3525 70.9962 61.769 70.3332C61.4643 69.9567 61.342 69.4225 61.4021 68.7309C61.5694 67.3925 62.3118 66.5739 63.629 66.2752C64.3628 66.1073 65.2252 66.0623 66.2164 66.1401ZM68.0057 72.617C67.598 76.8817 67.1947 80.8497 66.7956 84.521C65.6028 84.7911 64.543 84.9262 63.6162 84.9262C62.6936 84.9303 62.2088 84.9262 62.1616 84.9139C61.8569 82.274 61.6746 78.2426 61.6145 72.8196C62.8374 72.4635 64.9678 72.396 68.0057 72.617Z" fill="black"/>
<path d="M81.4316 68.3625C82.4485 69.6476 83.1865 71.1497 83.6456 72.8687C83.8859 73.9124 83.9932 74.952 83.9674 75.9874C83.2638 82.3272 80.0907 85.2454 74.4483 84.742C72.835 84.4146 71.5563 83.4569 70.6123 81.8688C69.9773 80.6819 69.5997 79.3927 69.4795 78.0011C69.3637 76.5031 69.5182 74.9724 69.9429 73.409C70.3506 72.1402 70.7539 71.1722 71.153 70.5051C71.2474 70.2472 71.5971 69.7541 72.2021 69.0255C75.5146 65.5753 78.5911 65.3543 81.4316 68.3625ZM74.0943 77.909C74.429 79.5707 75.1734 80.4179 76.3277 80.4507C77.3446 80.553 78.1598 80.0455 78.7734 78.9281C79.4471 77.5038 79.6015 76.0734 79.2368 74.6368C78.7391 72.8114 77.9968 71.9151 77.0099 71.9478C75.7613 72.1156 74.8538 73.1695 74.2874 75.1095C74.0257 76.1041 73.9613 77.0373 74.0943 77.909Z" fill="black"/>
</svg>
