<svg width="128" height="25" viewBox="0 0 128 25" fill="none" xmlns="http://www.w3.org/2000/svg">
<g clip-path="url(#clip0_890_430)">
<path d="M9.30991 14.312L12.9183 17.9545C13.0086 18.0457 13.1551 18.0457 13.2454 17.9545L16.8553 14.3105C16.9457 14.2193 16.9457 14.0715 16.8553 13.9804L13.2469 10.3379C13.1566 10.2467 13.0102 10.2467 12.9198 10.3379L9.30991 13.9819C9.21961 14.073 9.21961 14.2208 9.30991 14.312Z" fill="black"/>
<path d="M20.2339 0.0636673C20.2339 0.0285048 20.2057 0 20.1708 0H15.4408C15.406 0 15.3777 0.0285048 15.3777 0.0636673L15.3672 1.9843V2.00163V8.92798C15.3672 8.94482 15.3739 8.96101 15.3857 8.97301L19.6416 13.269C20.0867 13.7183 20.0867 14.4468 19.6416 14.8962L15.3672 19.2108L14.9151 19.669C14.8329 19.7523 14.833 19.887 14.9154 19.9702L18.0599 23.1443C18.1423 23.2275 18.2759 23.2275 18.3582 23.1443L25.3325 16.1043C26.4387 14.9877 26.4387 13.1774 25.3325 12.0609L20.2524 6.93281C20.2406 6.92087 20.2339 6.90468 20.2339 6.88779V0.0636673Z" fill="black"/>
<path d="M10.7949 19.2108L13.0813 21.5278L16.4128 24.8913C16.4525 24.9315 16.4244 25 16.3682 25H9.64227L0.829595 16.1043C-0.276532 14.9877 -0.276532 13.1774 0.829595 12.0609L5.81223 7.03125L10.6872 2.11033C10.727 2.07022 10.7949 2.09863 10.7949 2.15535V8.92799C10.7949 8.94482 10.7882 8.96102 10.7764 8.97302L9.42945 10.3327L6.52055 13.269C6.0754 13.7183 6.0754 14.4468 6.52055 14.8962L10.7949 19.2108Z" fill="black"/>
<path fill-rule="evenodd" clip-rule="evenodd" d="M32.506 4.4541H42.5703C43.7817 4.4541 44.7637 5.44583 44.7637 6.66921V18.3097C44.7637 19.5331 43.7817 20.5249 42.5703 20.5249H32.506C31.2946 20.5249 30.3125 19.5331 30.3125 18.3097V6.66921C30.3125 5.44584 31.2946 4.4541 32.506 4.4541ZM34.5705 8.11037C34.2142 8.11037 33.9253 8.40206 33.9253 8.76186V16.1981C33.9253 16.558 34.2142 16.8496 34.5705 16.8496H40.5058C40.8621 16.8496 41.1509 16.558 41.1509 16.1981V8.76186C41.1509 8.40206 40.8621 8.11037 40.5058 8.11037H34.5705Z" fill="black"/>
<path d="M36.1934 11.1514C36.1934 11.1154 36.2222 11.0862 36.2579 11.0862H38.9015C38.9371 11.0862 38.966 11.1154 38.966 11.1514V13.827C38.966 13.863 38.9371 13.8922 38.9015 13.8922H36.2579C36.2222 13.8922 36.1934 13.863 36.1934 13.827V11.1514Z" fill="black"/>
<path d="M50.3317 4.4541H46.1857C46.1319 4.4541 46.1017 4.51686 46.1351 4.55959L51.4586 11.3778C52.3426 12.5099 54.0451 12.5011 54.9175 11.3596L60.1149 4.55906C60.1476 4.51623 60.1174 4.4541 60.0638 4.4541H55.9172C55.8966 4.4541 55.8772 4.4641 55.865 4.48099L53.1996 8.19091L50.3829 4.47962C50.3706 4.46353 50.3517 4.4541 50.3317 4.4541Z" fill="black"/>
<path d="M50.3824 20.5133H46.2365C46.1826 20.5133 46.1525 20.4506 46.1858 20.4078L51.5094 13.5897C52.3934 12.4574 54.096 12.4664 54.9683 13.6078L60.1657 20.4084C60.1984 20.4512 60.1682 20.5133 60.1146 20.5133H55.968C55.9473 20.5133 55.9279 20.5033 55.9158 20.4864L53.2503 16.7765L50.4336 20.4878C50.4214 20.5039 50.4025 20.5133 50.3824 20.5133Z" fill="black"/>
<path d="M65.8265 4.45386H61.6496C61.5998 4.45386 61.5688 4.50845 61.5939 4.55188L66.7955 13.5409C67.6468 15.0122 69.7555 15.0023 70.5935 13.5232L75.6748 4.55136C75.6995 4.50792 75.6685 4.45386 75.6193 4.45386H71.4417C71.4185 4.45386 71.3967 4.46667 71.3854 4.48733L68.7096 9.34364L65.8821 4.486C65.8705 4.46608 65.8494 4.45386 65.8265 4.45386Z" fill="black"/>
<path d="M67.2568 16.079C67.2568 16.0431 67.2857 16.0139 67.3213 16.0139H69.9133C69.949 16.0139 69.9779 16.0431 69.9779 16.079V20.4483C69.9779 20.4843 69.949 20.5135 69.9133 20.5135H67.3213C67.2857 20.5135 67.2568 20.4843 67.2568 20.4483V16.079Z" fill="black"/>
<path d="M82.1816 11.0667H84.9519V13.8707H82.1816V11.0667Z" fill="black"/>
<path d="M89.0539 4.55148V8.114C89.0539 8.15001 89.0251 8.17913 88.9899 8.17913H81.3226C80.9667 8.17913 80.6777 8.47082 80.6777 8.83069V16.2015C80.6777 16.5613 80.9667 16.853 81.3226 16.853H85.8152C86.1718 16.853 86.4602 16.5613 86.4602 16.2015V11.3359C86.4602 11.3 86.4897 11.2708 86.5249 11.2708H90.0526C90.0885 11.2708 90.1173 11.3 90.1173 11.3359V18.3308C90.1173 19.5541 89.1355 20.5458 87.9237 20.5458H79.2141C78.003 20.5458 77.0205 19.5541 77.0205 18.3308V6.70143C77.0205 5.47807 78.003 4.48633 79.2141 4.48633H88.9899C89.0251 4.48633 89.0539 4.5155 89.0539 4.55148Z" fill="black"/>
<path d="M99.8906 11.1318C99.8906 11.0958 99.9195 11.0667 99.9553 11.0667H104.95C104.986 11.0667 105.015 11.0958 105.015 11.1318V13.8056C105.015 13.8415 104.986 13.8707 104.95 13.8707H99.9553C99.9195 13.8707 99.8906 13.8415 99.8906 13.8056V11.1318Z" fill="black"/>
<path d="M105.033 4.51901V8.0815C105.033 8.11751 105.004 8.1467 104.968 8.1467H97.316C96.9595 8.1467 96.6704 8.43839 96.6704 8.79819V16.169C96.6704 16.5289 96.9595 16.8206 97.316 16.8206H104.968C105.004 16.8206 105.033 16.8497 105.033 16.8857V20.4482C105.033 20.4842 105.004 20.5134 104.968 20.5134H95.287C94.0802 20.5134 93.0998 19.5288 93.0935 18.3101L93.0323 6.68078C93.0252 5.45281 94.0091 4.45386 95.2251 4.45386H104.968C105.004 4.45386 105.033 4.48303 105.033 4.51901Z" fill="black"/>
<path d="M117.636 20.4482C117.636 20.4842 117.665 20.5134 117.701 20.5134H121.052C121.087 20.5134 121.116 20.4842 121.116 20.4482V6.66896C121.116 5.44559 120.135 4.45386 118.923 4.45386H110.213C109.002 4.45386 108.02 5.44559 108.02 6.66896V20.4482C108.02 20.4842 108.048 20.5134 108.084 20.5134H111.435C111.471 20.5134 111.499 20.4842 111.499 20.4482V9.04109C111.499 8.68129 111.789 8.3896 112.144 8.3896H116.991C117.347 8.3896 117.636 8.68129 117.636 9.04109V20.4482Z" fill="black"/>
<path d="M124.02 4.55173C124.02 4.51574 124.048 4.48657 124.084 4.48657H127.909C127.945 4.48657 127.974 4.51574 127.974 4.55173V20.4809C127.974 20.5169 127.945 20.5461 127.909 20.5461H124.084C124.048 20.5461 124.02 20.5169 124.02 20.4809V4.55173Z" fill="black"/>
</g>
<defs>
<clipPath id="clip0_890_430">
<rect width="128" height="25" fill="white"/>
</clipPath>
</defs>
</svg>
